<?xml version="1.0" standalone="no"?><!DOCTYPE svg PUBLIC "-//W3C//DTD SVG 1.1//EN" "http://www.w3.org/Graphics/SVG/1.1/DTD/svg11.dtd"><svg t="1717687970600" class="icon" viewBox="0 0 1024 1024" version="1.1" xmlns="http://www.w3.org/2000/svg" p-id="7873" xmlns:xlink="http://www.w3.org/1999/xlink" width="200" height="200"><path d="M862.1 470.3h-66.2c-4.9 0-8.8-3.9-8.8-8.8s4-8.8 8.8-8.8h66.2c4.9 0 8.8 3.9 8.8 8.8s-3.9 8.8-8.8 8.8z" fill="#F39800" p-id="7874"></path><path d="M829 503.4c-4.9 0-8.8-3.9-8.8-8.8v-66.2c0-4.9 4-8.8 8.8-8.8s8.8 3.9 8.8 8.8v66.2c0 4.8-3.9 8.8-8.8 8.8z" fill="#F39800" p-id="7875"></path><path d="M569.6 236.6h-66.2c-4.9 0-8.8-3.9-8.8-8.8s3.9-8.8 8.8-8.8h66.2c4.9 0 8.8 3.9 8.8 8.8s-3.9 8.8-8.8 8.8z" fill="#E61673" p-id="7876"></path><path d="M536.5 269.7c-4.9 0-8.8-3.9-8.8-8.8v-66.2c0-4.9 4-8.8 8.8-8.8s8.8 3.9 8.8 8.8v66.2c0 4.8-3.9 8.8-8.8 8.8z" fill="#E61673" p-id="7877"></path><path d="M439.3 296.8h-66.2c-4.9 0-8.8-3.9-8.8-8.8s3.9-8.8 8.8-8.8h66.2c4.9 0 8.8 3.9 8.8 8.8s-3.9 8.8-8.8 8.8z" fill="#00A0E9" p-id="7878"></path><path d="M406.2 329.8c-4.9 0-8.8-3.9-8.8-8.8v-66.2c0-4.9 3.9-8.8 8.8-8.8s8.8 3.9 8.8 8.8V321c0.1 4.9-3.9 8.8-8.8 8.8z" fill="#00A0E9" p-id="7879"></path><path d="M141.7 514c-23.1 0-41.9-18.8-41.9-41.9 0-23.1 18.8-41.9 41.9-41.9 23.1 0 41.9 18.8 41.9 41.9 0 23.1-18.8 41.9-41.9 41.9z m0-66.2c-13.4 0-24.3 10.9-24.3 24.3s10.9 24.3 24.3 24.3 24.3-10.9 24.3-24.3-10.9-24.3-24.3-24.3z" fill="#E61673" p-id="7880"></path><path d="M668.9 236.6c-23.1 0-41.9-18.8-41.9-41.9s18.8-41.9 41.9-41.9 41.9 18.8 41.9 41.9-18.8 41.9-41.9 41.9z m0-66.2c-13.4 0-24.3 10.9-24.3 24.3s10.9 24.3 24.3 24.3 24.3-10.9 24.3-24.3-11-24.3-24.3-24.3z" fill="#F39800" p-id="7881"></path><path d="M806.3 340.9c-23.1 0-41.9-18.8-41.9-41.9 0-23.1 18.8-41.9 41.9-41.9 23.1 0 41.9 18.8 41.9 41.9 0 23.1-18.8 41.9-41.9 41.9z m0-66.2c-13.4 0-24.3 10.9-24.3 24.3s10.9 24.3 24.3 24.3 24.3-10.9 24.3-24.3c-0.1-13.4-10.9-24.3-24.3-24.3z" fill="#00A0E9" p-id="7882"></path><path d="M185.8 375.6m-11 0a11 11 0 1 0 22 0 11 11 0 1 0-22 0Z" fill="#F39800" p-id="7883"></path><path d="M635.8 299m-11 0a11 11 0 1 0 22 0 11 11 0 1 0-22 0Z" fill="#F39800" p-id="7884"></path><path d="M906.3 379.7m-11 0a11 11 0 1 0 22 0 11 11 0 1 0-22 0Z" fill="#F39800" p-id="7885"></path><path d="M351.8 172.6m-11 0a11 11 0 1 0 22 0 11 11 0 1 0-22 0Z" fill="#F39800" p-id="7886"></path><path d="M254.8 461m-11 0a11 11 0 1 0 22 0 11 11 0 1 0-22 0Z" fill="#F39800" p-id="7887"></path><path d="M218 250.7h-0.9l-16.7-1.7c-4.8-0.5-8.4-4.8-7.9-9.7 0.5-4.8 4.8-8.4 9.7-7.9l16.7 1.7c4.8 0.5 8.4 4.8 7.9 9.7-0.5 4.5-4.4 7.9-8.8 7.9zM218.7 288c-1.8 0-3.6-0.5-5.2-1.7-4-2.9-4.8-8.4-2-12.3l9.8-13.6c2.9-4 8.4-4.8 12.3-2 4 2.9 4.8 8.4 2 12.3l-9.8 13.6c-1.6 2.4-4.3 3.7-7.1 3.7zM261.2 292.3c-3.4 0-6.6-1.9-8.1-5.2l-6.9-15.3c-2-4.4 0-9.7 4.4-11.7s9.7 0 11.7 4.4l6.9 15.3c2 4.4 0 9.7-4.4 11.7-1.1 0.5-2.3 0.8-3.6 0.8zM286.2 257.7h-0.9l-16.7-1.7c-4.8-0.5-8.4-4.8-7.9-9.7 0.5-4.8 4.8-8.4 9.7-7.9l16.7 1.7c4.8 0.5 8.4 4.8 7.9 9.7-0.5 4.5-4.3 7.9-8.8 7.9zM258.9 232.3c-1.8 0-3.6-0.5-5.2-1.7-4-2.9-4.8-8.4-2-12.3l9.8-13.6c2.9-4 8.4-4.8 12.3-2s4.8 8.4 2 12.3l-9.8 13.6a8.73 8.73 0 0 1-7.1 3.7zM233.1 229.7c-3.4 0-6.6-1.9-8.1-5.2l-6.9-15.3c-2-4.4 0-9.7 4.4-11.7s9.7 0 11.7 4.4l6.9 15.3c2 4.4 0 9.7-4.4 11.7-1.1 0.6-2.4 0.8-3.6 0.8z" fill="#F39800" p-id="7888"></path><path d="M368.4 430.1C419 472.7 454 536.7 460.9 611c-133.8 14.3-253-91-266.2-235.1 64.8-6.9 126.2 14.2 173.7 54.2" fill="#FFFFFF" p-id="7889"></path><path d="M200.5 376.7c0.6 3 1.3 5.6 1.8 8.6 1.5 4.4 3.1 8.5 4.9 12.8C247 496 338.4 564.7 440.7 568.2c-2.7-10.8-6.4-21.5-10.5-31.7-39.4-96.6-132.2-160.4-229.7-159.8z" fill="#8FC31F" p-id="7890"></path><path d="M430.8 615.9c-55.5 0-109.4-19.4-154-55.9-27.5-22.5-50.1-50.3-67.1-82.5-17.6-33.3-28.3-69.6-31.8-108l-1-10.8 10.8-1.2c65.5-7 130.2 13.1 182 56.7 4.7 3.9 5.3 10.9 1.3 15.5-3.9 4.7-10.9 5.3-15.5 1.3-44.3-37.2-98.7-55.7-154.4-52.6 8.7 65.1 41.1 124.5 89.7 164.4 43.8 35.9 97.4 53.6 152 50.6-5.1-38.1-18.3-74.6-38.3-106.2-3.3-5.1-1.7-12 3.4-15.2 5.1-3.3 12-1.7 15.2 3.4C447 513 461.8 557 466 602.6l1 10.8-10.8 1.2c-8.5 0.8-17 1.3-25.4 1.3z" fill="#231815" p-id="7891"></path><path d="M658.5 528.7c-63 20.3-119.6 66.3-154 132.6 118.4 63.8 268.6 11.3 335.3-117.1-57.3-30.9-122.1-34.6-181.3-15.5" fill="#FFFFFF" p-id="7892"></path><path d="M834.2 542.7c-1.6 2.6-3.3 4.7-4.9 7.3-3 3.6-6.1 6.7-9.3 10-73.8 75.6-184.4 104.6-280.5 69.3 6.6-9 14-17.5 21.7-25.4 72.9-74.6 182.9-98.6 273-61.2z" fill="#8FC31F" p-id="7893"></path><path d="M620.6 694.8c-39.3 0-78-9.6-113.1-28.5l-9.6-5.2 5-9.6c21.1-40.6 51.5-75.7 87.8-101.5 5-3.5 11.9-2.4 15.4 2.6s2.4 11.9-2.6 15.4c-30.5 21.7-56.5 50.5-75.6 83.9 49.4 23.4 105.8 27.3 159.9 10.6C747.9 644 800.3 601.1 833 544.2c-50.4-23.9-107.8-27.4-162.8-9.7-5.8 1.9-12-1.3-13.9-7.1-1.9-5.8 1.3-12 7.1-13.9 64.5-20.8 131.9-15 190 16.2l9.6 5.2-5 9.6c-17.8 34.2-41.4 63.8-70.3 88-27.9 23.4-59.3 40.6-93.3 51-24.5 7.6-49.3 11.3-73.8 11.3z" fill="#231815" p-id="7894"></path><path d="M252.3 560.9l6.9-1c7.5-1 13.3-6.9 14.4-14.4l1-6.9c1.4-10 11.2-16.5 20.9-14l6.7 1.7c7.3 1.9 15-1.3 18.8-7.8l3.5-6c5.1-8.7 16.7-11 24.7-4.9l5.5 4.2c6 4.5 14.3 4.5 20.3 0l5.5-4.2c8-6.1 19.6-3.8 24.7 4.9l3.5 6c3.8 6.5 11.5 9.7 18.8 7.8l6.7-1.7c9.8-2.5 19.5 4 20.9 14l1 6.9c1 7.5 6.9 13.3 14.4 14.4l6.9 1c10 1.4 16.5 11.2 14 20.9l-1.7 6.7c-1.9 7.3 1.3 15 7.8 18.8l6 3.5c8.7 5.1 11 16.7 4.9 24.7l-4.2 5.5c-4.5 6-4.5 14.3 0 20.3l4.2 5.5c6.1 8 3.8 19.6-4.9 24.7l-6 3.5c-6.5 3.8-9.7 11.5-7.8 18.8l1.7 6.7c2.5 9.8-4 19.5-14 20.9l-6.9 1c-7.5 1-13.3 6.9-14.4 14.4l-1 6.9c-1.4 10-11.2 16.5-20.9 14l-6.7-1.7c-7.3-1.9-15 1.3-18.8 7.8l-3.5 6c-5.1 8.7-16.7 11-24.7 4.9l-5.5-4.2c-6-4.5-14.3-4.5-20.3 0l-5.5 4.2c-8 6.1-19.6 3.8-24.7-4.9l-3.5-6c-3.8-6.5-11.5-9.7-18.8-7.8l-6.7 1.7c-9.8 2.5-19.5-4-20.9-14l-1-6.9c-1-7.5-6.9-13.3-14.4-14.4l-6.9-1c-10-1.4-16.5-11.2-14-20.9l1.7-6.7c1.9-7.3-1.3-15-7.8-18.8l-6-3.5c-8.7-5.1-11-16.7-4.9-24.7l4.2-5.5c4.5-6 4.5-14.3 0-20.3l-4.2-5.5c-0.6-0.9-1.2-1.8-1.7-2.7" fill="#FFFFFF" p-id="7895"></path><path d="M393.6 511.9l5.5-4.2c8-6.1 19.6-3.8 24.7 4.9l3.5 6c3.8 6.5 11.5 9.7 18.8 7.8l6.7-1.7c9.8-2.5 19.5 4 20.9 14l1 6.9c1 7.5 6.9 13.3 14.4 14.4l6.9 1c10 1.4 16.5 11.2 14 20.9l-1.7 6.7c-1.9 7.3 1.3 15 7.8 18.8l6 3.5c8.7 5.1 11 16.7 4.9 24.7l-4.2 5.5c-4.5 6-4.5 14.3 0 20.3l4.2 5.5c6.1 8 3.8 19.6-4.9 24.7l-6 3.5c-6.5 3.8-9.7 11.5-7.8 18.8l1.7 6.7c2.5 9.8-4 19.5-14 20.9l-6.9 1c-7.5 1-13.3 6.9-14.4 14.4l-1 6.9c-1.4 10-11.2 16.5-20.9 14l-6.7-1.7c-7.3-1.9-15 1.3-18.8 7.8l-3.5 6c-5.1 8.7-16.7 11-24.7 4.9l-5.5-4.2c-6-4.5-14.3-4.5-20.3 0l-5.5 4.2c-8 6.1-19.6 3.8-24.7-4.9l-3.5-6c-3.8-6.5-11.5-9.7-18.8-7.8l-6.7 1.7c-9.8 2.5-19.5-4-20.9-14l-1-6.9c-1-7.5-6.9-13.3-14.4-14.4l-6.9-1c-10-1.4-16.5-11.2-14-20.9l1.7-6.7c1.9-7.3-1.3-15-7.8-18.8l-6-3.5c-8.7-5.1-11-16.7-4.9-24.7l4.2-5.5c4.5-6 4.5-14.3 0-20.3l-4.2-5.5c-6.1-8-3.8-19.6 4.9-24.7l6-3.5c6.5-3.8 9.7-11.5 7.8-18.8l-1.7-6.7c-2.5-9.8 4-19.5 14-20.9l6.9-1c7.5-1 13.3-6.9 14.4-14.4l1-6.9c1.4-10 11.2-16.5 20.9-14l6.7 1.7c7.3 1.9 15-1.3 18.8-7.8l3.5-6c5.1-8.7 16.7-11 24.7-4.9l5.5 4.2c5.9 4.6 14.2 4.6 20.3 0z" fill="#C30D23" p-id="7896"></path><path d="M508.3 666.9c6.1 8.2 3.8 19.6-5 24.8l-6 3.6c-6.5 3.8-9.6 11.4-7.7 18.8l1.7 6.7c2.6 9.7-3.9 19.6-14 21l-6.8 0.9c-7.5 1-13.3 7-14.3 14.3l-1 7c-1.4 9.9-11.1 16.6-21 14l-6.7-1.9c-3.8-1-7.7-0.5-11.1 1.2 5.3-2.2 9.4-7.2 10.2-13.3l1-7c1-7.3 6.8-13.3 14.3-14.3l6.8-0.9c10.1-1.4 16.6-11.3 14-21l-1.7-6.7c-1.9-7.3 1.4-15 7.9-18.8l6-3.6c8.7-5.1 10.9-16.6 5-24.8l-4.3-5.5c-4.6-6-4.6-14.3 0-20.3l4.3-5.5c6-8.2 3.8-19.6-5-24.8l-6-3.6c-6.5-3.8-9.7-11.4-7.9-18.8l1.7-6.7c2.6-9.7-3.9-19.6-14-21l-6.8-0.9c-7.5-1-13.3-7-14.3-14.5l-1-6.8c-0.7-5.3-3.8-9.6-7.9-12.1 2.7 0.7 5.8 0.7 8.7-0.2l6.7-1.7c9.9-2.6 19.6 4.1 21 14l1 6.8c1 7.5 6.8 13.5 14.3 14.5l6.8 0.9c10.1 1.4 16.6 11.3 14 21l-1.7 6.7c-1.9 7.3 1.2 15 7.7 18.8l6 3.6c8.7 5.1 11.1 16.6 5 24.8l-4.1 5.5c-4.6 6-4.6 14.3 0 20.3l4.2 5.5z" fill="#A51C1C" p-id="7897"></path><path d="M265.9 635.8a8.5 8.2 0 1 0 17 0 8.5 8.2 0 1 0-17 0Z" fill="#FFFFFF" p-id="7898"></path><path d="M224.2 623.4c-3.2 0-6.4-1.4-8.5-4.1-3.9-4.7-3.1-11.7 1.6-15.5 1.1-0.9 2.3-1.7 3.5-2.5l6-3.5c2.2-1.3 3.3-4 2.7-6.5l-1.7-6.7c-1-3.9-1.2-7.9-0.5-11.9 1.1-6 6.8-10 12.8-8.9 6 1.1 10 6.8 8.9 12.8-0.1 0.8-0.1 1.7 0.1 2.5l1.7 6.7c3.1 12-2.2 24.8-12.9 31.1l-6 3.5c-0.3 0.2-0.5 0.3-0.8 0.5-2 1.6-4.5 2.5-6.9 2.5z" fill="#231815" p-id="7899"></path><path d="M390.8 809.1c-6 0-11.9-2-16.8-5.6l-5.5-4.2c-2.1-1.6-5-1.6-7 0l-5.5 4.2c-6.3 4.8-14.5 6.7-22.3 5.1-7.8-1.6-14.6-6.4-18.6-13.2l-3.5-6c-1.3-2.2-4-3.3-6.5-2.7l-6.7 1.7c-7.7 2-15.9 0.6-22.5-3.8-6.6-4.4-11-11.5-12.1-19.3l-1-6.9c-0.4-2.6-2.4-4.6-5-5l-6.9-1c-7.9-1.1-14.9-5.5-19.3-12.1s-5.8-14.8-3.8-22.5l1.7-6.7c0.7-2.5-0.5-5.2-2.7-6.5l-6-3.5c-6.9-4-11.7-10.8-13.2-18.6-1.6-7.8 0.3-15.9 5.1-22.3l4.2-5.5c1.6-2.1 1.6-5 0-7l-4.2-5.5c-1.1-1.4-2-2.9-2.7-4.4-2.7-5.5-0.5-12.1 5-14.8s12.1-0.5 14.8 5l0.6 0.9 4.2 5.5c7.5 9.9 7.5 23.7 0 33.6l-4.2 5.5c-1.4 1.8-1.3 3.7-1.1 4.7 0.2 1 0.8 2.7 2.8 3.9l6 3.5c10.7 6.3 16 19.1 12.9 31.1l-1.7 6.7c-0.6 2.2 0.3 3.9 0.8 4.7 0.5 0.8 1.8 2.2 4 2.5l6.9 1c12.3 1.7 22.1 11.5 23.8 23.8l1 6.9c0.3 2.3 1.7 3.5 2.5 4s2.5 1.4 4.7 0.8l6.7-1.7c12-3.1 24.8 2.2 31.1 12.9l3.5 6c1.2 2 2.9 2.6 3.9 2.8 1 0.2 2.8 0.3 4.6-1.1l5.5-4.2c9.9-7.5 23.7-7.5 33.6 0l5.5 4.2c1.8 1.4 3.7 1.3 4.6 1.1s2.7-0.8 3.9-2.8l3.5-6c6.3-10.7 19.1-16 31.1-12.9l6.7 1.7c2.2 0.6 3.9-0.3 4.7-0.8 0.8-0.5 2.2-1.8 2.5-4l1-6.9c1.7-12.3 11.5-22.1 23.8-23.8l6.9-1c2.3-0.3 3.5-1.7 4-2.5s1.4-2.5 0.8-4.7l-1.7-6.7c-3.1-12 2.2-24.8 12.9-31.1l6-3.5c2-1.2 2.6-2.9 2.8-3.9 0.2-1 0.3-2.8-1.1-4.7l-4.2-5.5c-7.5-9.9-7.5-23.7 0-33.6l4.2-5.5c1.4-1.8 1.3-3.7 1.1-4.6-0.2-1-0.8-2.7-2.8-3.9l-6-3.5c-10.7-6.3-16-19.1-12.9-31.1l1.7-6.7c0.6-2.2-0.3-3.9-0.8-4.7-0.5-0.8-1.8-2.2-4-2.5l-6.9-1c-12.3-1.7-22.1-11.5-23.8-23.8l-1-6.9c-0.3-2.3-1.7-3.5-2.5-4s-2.5-1.4-4.7-0.8l-6.7 1.7c-12 3.1-24.8-2.2-31.1-12.9l-3.5-6c-1.2-2-2.9-2.6-3.9-2.8-1-0.2-2.8-0.3-4.7 1.1l-5.5 4.2c-9.9 7.5-23.7 7.5-33.6 0l-5.5-4.2c-1.8-1.4-3.7-1.3-4.6-1.1-1 0.2-2.7 0.8-3.9 2.8l-3.5 6c-6.3 10.7-19.1 16-31.1 12.9l-6.7-1.7c-2.2-0.6-3.9 0.3-4.7 0.8-0.8 0.5-2.2 1.8-2.5 4l-1 6.9c-1.7 12.3-11.5 22.1-23.8 23.8l-6.9 1c-6 0.8-11.6-3.4-12.4-9.4-0.8-6 3.4-11.6 9.4-12.4l6.9-1c2.6-0.4 4.6-2.4 5-5l1-6.9c1.1-7.9 5.5-14.9 12.1-19.3s14.8-5.8 22.5-3.8l6.7 1.7c2.5 0.7 5.2-0.5 6.5-2.7l3.5-6c4-6.9 10.8-11.7 18.6-13.2 7.8-1.5 15.9 0.3 22.3 5.1l5.5 4.2c2.1 1.6 5 1.6 7 0l5.5-4.2c6.3-4.8 14.5-6.7 22.3-5.1 7.8 1.6 14.6 6.4 18.6 13.2l3.5 6c1.3 2.2 4 3.3 6.5 2.7l6.7-1.7c7.7-2 15.9-0.6 22.5 3.8 6.6 4.4 11 11.5 12.1 19.3l1 6.9c0.4 2.6 2.4 4.6 5 5l6.9 1c7.9 1.1 14.9 5.5 19.3 12.1s5.8 14.8 3.8 22.5l-1.7 6.7c-0.7 2.5 0.5 5.2 2.7 6.5l6 3.5c6.9 4 11.7 10.8 13.2 18.6 1.6 7.8-0.3 15.9-5.1 22.3l-4.2 5.5c-1.6 2.1-1.6 5 0 7l4.2 5.5c4.8 6.3 6.7 14.5 5.1 22.3-1.6 7.8-6.4 14.6-13.2 18.6l-6 3.5c-2.2 1.3-3.3 4-2.7 6.5l1.7 6.7c2 7.7 0.6 15.9-3.8 22.5s-11.5 11-19.3 12.1l-6.9 1c-2.6 0.4-4.6 2.4-5 5l-1 6.9c-1.1 7.9-5.5 14.9-12.1 19.3s-14.8 5.8-22.5 3.8l-6.7-1.7c-2.5-0.7-5.2 0.5-6.5 2.7l-3.5 6c-4 6.9-10.8 11.7-18.6 13.2-2 0.3-3.8 0.4-5.6 0.4z" fill="#231815" p-id="7900"></path><path d="M280.5 620.8h-0.9c-6.1-0.5-10.6-5.8-10.1-11.9 3.2-39.5 48.5-53.9 50.4-54.5 5.8-1.8 12 1.5 13.8 7.3 1.8 5.8-1.5 12-7.3 13.8-0.3 0.1-32.9 10.6-35 35.2-0.4 5.8-5.2 10.1-10.9 10.1z" fill="#FFFFFF" p-id="7901"></path><path d="M447.6 624.4l6.9-1c7.5-1 13.3-6.9 14.4-14.4l1-6.9c1.4-10 11.2-16.5 20.9-14l6.7 1.7c7.3 1.9 15-1.3 18.8-7.8l3.5-6c5.1-8.7 16.7-11 24.7-4.9l5.5 4.2c6 4.5 14.3 4.5 20.3 0l5.5-4.2c8-6.1 19.6-3.8 24.7 4.9l3.5 6c3.8 6.5 11.5 9.7 18.8 7.8l6.7-1.7c9.8-2.5 19.5 4 20.9 14l1 6.9c1 7.5 6.9 13.3 14.4 14.4l6.9 1c10 1.4 16.5 11.2 14 20.9L685 652c-1.9 7.3 1.3 15 7.8 18.8l6 3.5c8.7 5.1 11 16.7 4.9 24.7l-4.2 5.5c-4.5 6-4.5 14.3 0 20.3l4.2 5.5c6.1 8 3.8 19.6-4.9 24.7l-6 3.5c-6.5 3.8-9.7 11.5-7.8 18.8l1.7 6.7c2.5 9.8-4 19.5-14 20.9l-6.9 1c-7.5 1-13.3 6.9-14.4 14.4l-1 6.9c-1.4 10-11.2 16.5-20.9 14l-6.7-1.7c-7.3-1.9-15 1.3-18.8 7.8l-3.5 6c-5.1 8.7-16.7 11-24.7 4.9l-5.5-4.2c-6-4.5-14.3-4.5-20.3 0l-5.5 4.2c-8 6.1-19.6 3.8-24.7-4.9l-3.5-6c-3.8-6.5-11.5-9.7-18.8-7.8l-6.7 1.7c-9.8 2.5-19.5-4-20.9-14l-1-6.9c-1-7.5-6.9-13.3-14.4-14.4l-6.9-1c-10-1.4-16.5-11.2-14-20.9l1.7-6.7c1.9-7.3-1.3-15-7.8-18.8l-6-3.5c-8.7-5.1-11-16.7-4.9-24.7l4.2-5.5c4.5-6 4.5-14.3 0-20.3l-4.2-5.5c-0.6-0.9-1.2-1.8-1.7-2.7" fill="#FFFFFF" p-id="7902"></path><path d="M588.8 575.4l5.5-4.2c8-6.1 19.6-3.8 24.7 4.9l3.5 6c3.8 6.5 11.5 9.7 18.8 7.8l6.7-1.7c9.8-2.5 19.5 4 20.9 14l1 6.9c1 7.5 6.9 13.3 14.4 14.4l6.9 1c10 1.4 16.5 11.2 14 20.9l-1.7 6.7c-1.9 7.3 1.3 15 7.8 18.8l6 3.5c8.7 5.1 11 16.7 4.9 24.7l-4.2 5.5c-4.5 6-4.5 14.3 0 20.3l4.2 5.5c6.1 8 3.8 19.6-4.9 24.7l-6 3.5c-6.5 3.8-9.7 11.5-7.8 18.8l1.7 6.7c2.5 9.8-4 19.5-14 20.9l-6.9 1c-7.5 1-13.3 6.9-14.4 14.4l-1 6.9c-1.4 10-11.2 16.5-20.9 14l-6.7-1.7c-7.3-1.9-15 1.3-18.8 7.8l-3.5 6c-5.1 8.7-16.7 11-24.7 4.9l-5.5-4.2c-6-4.5-14.3-4.5-20.3 0l-5.5 4.2c-8 6.1-19.6 3.8-24.7-4.9l-3.5-6c-3.8-6.5-11.5-9.7-18.8-7.8l-6.7 1.7c-9.8 2.5-19.5-4-20.9-14l-1-6.9c-1-7.5-6.9-13.3-14.4-14.4l-6.9-1c-10-1.4-16.5-11.2-14-20.9l1.7-6.7c1.9-7.3-1.3-15-7.8-18.8l-6-3.5c-8.7-5.1-11-16.7-4.9-24.7l4.2-5.5c4.5-6 4.5-14.3 0-20.3l-4.2-5.5c-6.1-8-3.8-19.6 4.9-24.7l6-3.5c6.5-3.8 9.7-11.5 7.8-18.8l-1.7-6.7c-2.5-9.8 4-19.5 14-20.9l6.9-1c7.5-1 13.3-6.9 14.4-14.4l1-6.9c1.4-10 11.2-16.5 20.9-14l6.7 1.7c7.3 1.9 15-1.3 18.8-7.8l3.5-6c5.1-8.7 16.7-11 24.7-4.9l5.5 4.2c6 4.6 14.3 4.6 20.3 0z" fill="#C30D23" p-id="7903"></path><path d="M703.6 730.3c6.1 8.2 3.8 19.6-5 24.8l-6 3.6c-6.5 3.8-9.6 11.4-7.7 18.8l1.7 6.7c2.6 9.7-3.9 19.6-14 21l-6.8 0.9c-7.5 1-13.3 7-14.3 14.3l-1 7c-1.4 9.9-11.1 16.6-21 14l-6.7-1.9c-3.8-1-7.7-0.5-11.1 1.2 5.3-2.2 9.4-7.2 10.2-13.3l1-7c1-7.3 6.8-13.3 14.3-14.3l6.8-0.9c10.1-1.4 16.6-11.3 14-21l-1.7-6.7c-1.9-7.3 1.4-15 7.9-18.8l6-3.6c8.7-5.1 10.9-16.6 5-24.8l-4.3-5.5c-4.6-6-4.6-14.3 0-20.3l4.3-5.5c6-8.2 3.8-19.6-5-24.8l-6-3.6c-6.5-3.8-9.7-11.4-7.9-18.8l1.7-6.7c2.6-9.7-3.9-19.6-14-21l-6.8-0.9c-7.5-1-13.3-7-14.3-14.5l-1-6.8c-0.7-5.3-3.8-9.6-7.9-12.1 2.7 0.7 5.8 0.7 8.7-0.2l6.7-1.7c9.9-2.6 19.6 4.1 21 14l1 6.8c1 7.5 6.8 13.5 14.3 14.5l6.8 0.9c10.1 1.4 16.6 11.3 14 21L685 652c-1.9 7.3 1.2 15 7.7 18.8l6 3.6c8.7 5.1 11.1 16.6 5 24.8l-4.1 5.5c-4.6 6-4.6 14.3 0 20.3l4 5.3z" fill="#A51C1C" p-id="7904"></path><path d="M461.1 699.2a8.5 8.2 0 1 0 17 0 8.5 8.2 0 1 0-17 0Z" fill="#FFFFFF" p-id="7905"></path><path d="M419.4 686.8c-3.2 0-6.4-1.4-8.5-4.1-3.9-4.7-3.1-11.7 1.6-15.5 1.1-0.9 2.3-1.7 3.5-2.5l6-3.5c2.2-1.3 3.3-4 2.7-6.5L423 648c-1-3.9-1.2-7.9-0.5-11.9 1.1-6 6.8-10 12.8-8.9 6 1.1 10 6.8 8.9 12.8-0.1 0.8-0.1 1.7 0.1 2.5l1.7 6.7c3.1 12-2.2 24.8-12.9 31.1l-6 3.5c-0.3 0.2-0.5 0.3-0.8 0.5-2 1.7-4.4 2.5-6.9 2.5z" fill="#231815" p-id="7906"></path><path d="M534.2 872.6c-1.8 0-3.6-0.2-5.4-0.5-7.8-1.6-14.6-6.4-18.6-13.2l-3.5-6c-1.3-2.2-4-3.3-6.5-2.7l-6.7 1.7c-7.7 2-15.9 0.6-22.5-3.8-6.6-4.4-11-11.5-12.1-19.3l-1-6.9c-0.4-2.6-2.4-4.6-5-5l-6.9-1c-7.9-1.1-14.9-5.5-19.3-12.1s-5.8-14.8-3.8-22.5l1.7-6.7c0.7-2.5-0.5-5.2-2.7-6.5l-6-3.5c-6.9-4-11.7-10.8-13.2-18.6-1.6-7.8 0.3-15.9 5.1-22.3l4.2-5.5c1.6-2.1 1.6-5 0-7l-4.2-5.5c-1.1-1.4-2-2.9-2.7-4.4-2.7-5.5-0.5-12.1 5-14.8 5.5-2.7 12.1-0.5 14.8 5l0.6 0.9 4.2 5.5c7.5 9.9 7.5 23.7 0 33.6l-4.2 5.5c-1.4 1.8-1.3 3.7-1.1 4.6 0.2 1 0.8 2.7 2.8 3.9l6 3.5c10.7 6.3 16 19.1 12.9 31.1l-1.7 6.7c-0.6 2.2 0.3 3.9 0.8 4.7 0.5 0.8 1.8 2.2 4 2.5l6.9 1c12.3 1.7 22.1 11.5 23.8 23.8l1 6.9c0.3 2.3 1.7 3.5 2.5 4s2.5 1.4 4.7 0.8l6.7-1.7c12-3.1 24.8 2.2 31.1 12.9l3.5 6c1.2 2 2.9 2.6 3.9 2.8 1 0.2 2.8 0.3 4.6-1.1l5.5-4.2c9.9-7.5 23.7-7.5 33.6 0l5.5 4.2c1.8 1.4 3.7 1.3 4.7 1.1 1-0.2 2.7-0.8 3.9-2.8l3.5-6c6.3-10.7 19.1-16 31.1-12.9l6.7 1.7c2.2 0.6 3.9-0.3 4.7-0.8 0.8-0.5 2.2-1.8 2.5-4l1-6.9c1.7-12.3 11.5-22.1 23.8-23.8l6.9-1c2.3-0.3 3.5-1.7 4-2.5s1.4-2.5 0.8-4.7l-1.7-6.7c-3.1-12 2.2-24.8 12.9-31.1l6-3.5c2-1.2 2.6-2.9 2.8-3.9 0.2-1 0.3-2.8-1.1-4.6l-4.2-5.5c-7.5-9.9-7.5-23.7 0-33.6l4.2-5.5c1.4-1.8 1.3-3.7 1.1-4.7-0.2-1-0.8-2.7-2.8-3.9l-6-3.5c-10.7-6.3-16-19.1-12.9-31.1l1.7-6.7c0.6-2.2-0.3-3.9-0.8-4.7-0.5-0.8-1.8-2.2-4-2.5l-6.9-1c-12.3-1.7-22.1-11.5-23.8-23.8l-1-6.9c-0.3-2.3-1.7-3.5-2.5-4s-2.5-1.4-4.7-0.8l-6.7 1.7c-12 3.1-24.8-2.2-31.1-12.9l-3.5-6c-1.2-2-2.9-2.6-3.9-2.8-1-0.2-2.8-0.3-4.6 1.1l-5.5 4.2c-9.9 7.5-23.7 7.5-33.6 0l-5.5-4.2c-1.8-1.4-3.7-1.3-4.6-1.1-1 0.2-2.7 0.8-3.9 2.8l-3.5 6c-6.3 10.7-19.1 16-31.1 12.9l-6.7-1.7c-2.2-0.6-3.9 0.3-4.7 0.8-0.8 0.5-2.2 1.8-2.5 4l-1 6.9c-1.7 12.3-11.5 22.1-23.8 23.8l-6.9 1c-6 0.8-11.6-3.4-12.4-9.4-0.8-6 3.4-11.6 9.4-12.4l6.9-1c2.6-0.4 4.6-2.4 5-5l1-6.9c1.1-7.9 5.5-14.9 12.1-19.3s14.8-5.8 22.5-3.8l6.7 1.7c2.5 0.7 5.2-0.5 6.5-2.7l3.5-6c4-6.9 10.8-11.7 18.6-13.2 7.8-1.5 15.9 0.3 22.3 5.1l5.5 4.2c2.1 1.6 5 1.6 7 0l5.5-4.2c6.3-4.8 14.5-6.7 22.3-5.1 7.8 1.6 14.6 6.4 18.6 13.2l3.5 6c1.3 2.2 4 3.3 6.5 2.7l6.7-1.7c7.7-2 15.9-0.6 22.5 3.8 6.6 4.4 11 11.5 12.1 19.3l1 6.9c0.4 2.6 2.4 4.6 5 5l6.9 1c7.9 1.1 14.9 5.5 19.3 12.1s5.8 14.8 3.8 22.5l-1.7 6.7c-0.7 2.5 0.5 5.2 2.7 6.5l6 3.5c6.9 4 11.7 10.8 13.2 18.6 1.6 7.8-0.3 15.9-5.1 22.3l-4.2 5.5c-1.6 2.1-1.6 5 0 7l4.2 5.5c4.8 6.3 6.7 14.5 5.1 22.3-1.6 7.8-6.4 14.6-13.2 18.6l-6 3.5c-2.2 1.3-3.3 4-2.7 6.5l1.7 6.7c2 7.7 0.6 15.9-3.8 22.5-4.4 6.6-11.5 11-19.3 12.1l-6.9 1c-2.6 0.4-4.6 2.4-5 5l-1 6.9c-1.1 7.9-5.5 14.9-12.1 19.3s-14.8 5.8-22.5 3.8l-6.7-1.7c-2.5-0.7-5.2 0.5-6.5 2.7l-3.5 6c-4 6.9-10.8 11.7-18.6 13.2-7.8 1.6-15.9-0.3-22.3-5.1l-5.5-4.2c-2.1-1.6-5-1.6-7 0l-5.5 4.2c-5.2 3.7-11.1 5.6-17.2 5.6z" fill="#231815" p-id="7907"></path><path d="M475.7 684.3h-0.9c-6.1-0.5-10.6-5.8-10.1-11.9 3.2-39.5 48.5-53.9 50.4-54.5 5.8-1.8 12 1.5 13.8 7.3 1.8 5.8-1.5 12-7.3 13.8-0.4 0.1-32.9 10.6-35 35.2-0.3 5.7-5.2 10.1-10.9 10.1z" fill="#FFFFFF" p-id="7908"></path><path d="M400.4 389.9l6.9-1c7.5-1 13.3-6.9 14.4-14.4l1-6.9c1.4-10 11.2-16.5 20.9-14l6.7 1.7c7.3 1.9 15-1.3 18.8-7.8l3.5-6c5.1-8.7 16.7-11 24.7-4.9l5.5 4.2c6 4.5 14.3 4.5 20.3 0l5.5-4.2c8-6.1 19.6-3.8 24.7 4.9l3.5 6c3.8 6.5 11.5 9.7 18.8 7.8l6.7-1.7c9.8-2.5 19.5 4 20.9 14l1 6.9c1 7.5 6.9 13.3 14.4 14.4l6.9 1c10 1.4 16.5 11.2 14 20.9l-1.7 6.7c-1.9 7.3 1.3 15 7.8 18.8l6 3.5c8.7 5.1 11 16.7 4.9 24.7l-4.2 5.5c-4.5 6-4.5 14.3 0 20.3l4.2 5.5c6.1 8 3.8 19.6-4.9 24.7l-6 3.5c-6.5 3.8-9.7 11.5-7.8 18.8l1.7 6.7c2.5 9.8-4 19.5-14 20.9l-6.9 1c-7.5 1-13.3 6.9-14.4 14.4l-1 6.9c-1.4 10-11.2 16.5-20.9 14l-6.7-1.7c-7.3-1.9-15 1.3-18.8 7.8l-3.5 6c-5.1 8.7-16.7 11-24.7 4.9l-5.5-4.2c-6-4.5-14.3-4.5-20.3 0l-5.5 4.2c-8 6.1-19.6 3.8-24.7-4.9l-3.5-6c-3.8-6.5-11.5-9.7-18.8-7.8l-6.7 1.7c-9.8 2.5-19.5-4-20.9-14l-1-6.9c-1-7.5-6.9-13.3-14.4-14.4l-6.9-1c-10-1.4-16.5-11.2-14-20.9l1.7-6.7c1.9-7.3-1.3-15-7.8-18.8l-6-3.5c-8.7-5.1-11-16.7-4.9-24.7l4.2-5.5c4.5-6 4.5-14.3 0-20.3l-4.2-5.5c-0.6-0.9-1.2-1.8-1.7-2.7" fill="#FFFFFF" p-id="7909"></path><path d="M541.7 341l5.5-4.2c8-6.1 19.6-3.8 24.7 4.9l3.5 6c3.8 6.5 11.5 9.7 18.8 7.8l6.7-1.7c9.8-2.5 19.5 4 20.9 14l1 6.9c1 7.5 6.9 13.3 14.4 14.4l6.9 1c10 1.4 16.5 11.2 14 20.9l-1.7 6.7c-1.9 7.3 1.3 15 7.8 18.8l6 3.5c8.7 5.1 11 16.7 4.9 24.7l-4.2 5.5c-4.5 6-4.5 14.3 0 20.3l4.2 5.5c6.1 8 3.8 19.6-4.9 24.7l-6 3.5c-6.5 3.8-9.7 11.5-7.8 18.8l1.7 6.7c2.5 9.8-4 19.5-14 20.9l-6.9 1c-7.5 1-13.3 6.9-14.4 14.4l-1 6.9c-1.4 10-11.2 16.5-20.9 14l-6.7-1.7c-7.3-1.9-15 1.3-18.8 7.8l-3.5 6c-5.1 8.7-16.7 11-24.7 4.9l-5.5-4.2c-6-4.5-14.3-4.5-20.3 0l-5.5 4.2c-8 6.1-19.6 3.8-24.7-4.9l-3.5-6c-3.8-6.5-11.5-9.7-18.8-7.8l-6.7 1.7c-9.8 2.5-19.5-4-20.9-14l-1-6.9c-1-7.5-6.9-13.3-14.4-14.4l-6.9-1c-10-1.4-16.5-11.2-14-20.9l1.7-6.7c1.9-7.3-1.3-15-7.8-18.8l-6-3.5c-8.7-5.1-11-16.7-4.9-24.7l4.2-5.5c4.5-6 4.5-14.3 0-20.3l-4.2-5.5c-6.1-8-3.8-19.6 4.9-24.7l6-3.5c6.5-3.8 9.7-11.5 7.8-18.8L405 411c-2.5-9.8 4-19.5 14-20.9l6.9-1c7.5-1 13.3-6.9 14.4-14.4l1-6.9c1.4-10 11.2-16.5 20.9-14l6.7 1.7c7.3 1.9 15-1.3 18.8-7.8l3.5-6c5.1-8.7 16.7-11 24.7-4.9l5.5 4.2c5.9 4.5 14.2 4.5 20.3 0z" fill="#C30D23" p-id="7910"></path><path d="M656.5 495.9c6.1 8.2 3.8 19.6-5 24.8l-6 3.6c-6.5 3.8-9.6 11.4-7.7 18.8l1.7 6.7c2.6 9.7-3.9 19.6-14 21l-6.8 0.9c-7.5 1-13.3 7-14.3 14.3l-1 7c-1.4 9.9-11.1 16.6-21 14l-6.7-1.9c-3.8-1-7.7-0.5-11.1 1.2 5.3-2.2 9.4-7.2 10.2-13.3l1-7c1-7.3 6.8-13.3 14.3-14.3l6.8-0.9c10.1-1.4 16.6-11.3 14-21l-1.7-6.7c-1.9-7.3 1.4-15 7.9-18.8l6-3.6c8.7-5.1 10.9-16.6 5-24.8l-4.3-5.5c-4.6-6-4.6-14.3 0-20.3l4.3-5.5c6-8.2 3.8-19.6-5-24.8l-6-3.6c-6.5-3.8-9.7-11.4-7.9-18.8l1.7-6.7c2.6-9.7-3.9-19.6-14-21l-6.8-0.9c-7.5-1-13.3-7-14.3-14.5l-1-6.8c-0.7-5.3-3.8-9.6-7.9-12.1 2.7 0.7 5.8 0.7 8.7-0.2l6.7-1.7c9.9-2.6 19.6 4.1 21 14l1 6.8c1 7.5 6.8 13.5 14.3 14.5l6.8 0.9c10.1 1.4 16.6 11.3 14 21l-1.7 6.7c-1.9 7.3 1.2 15 7.7 18.8l6 3.6c8.7 5.1 11.1 16.6 5 24.8l-4.1 5.5c-4.6 6-4.6 14.3 0 20.3l4.2 5.5z" fill="#A51C1C" p-id="7911"></path><path d="M414 464.8a8.5 8.2 0 1 0 17 0 8.5 8.2 0 1 0-17 0Z" fill="#FFFFFF" p-id="7912"></path><path d="M372.3 452.4c-3.2 0-6.4-1.4-8.5-4.1-3.9-4.7-3.2-11.7 1.6-15.5 1.1-0.9 2.3-1.7 3.5-2.5l6-3.5c2.2-1.3 3.3-4 2.7-6.5l-1.7-6.7c-1-3.9-1.2-7.9-0.5-11.9 1.1-6 6.8-10 12.8-8.9 6 1.1 10 6.8 8.9 12.8-0.1 0.8-0.1 1.6 0.1 2.5l1.7 6.7c3.1 12-2.2 24.8-12.9 31.1l-6 3.5c-0.3 0.2-0.5 0.3-0.8 0.5-2 1.7-4.5 2.5-6.9 2.5z" fill="#231815" p-id="7913"></path><path d="M487.1 638.2c-1.8 0-3.6-0.2-5.4-0.5-7.8-1.6-14.6-6.4-18.6-13.2l-3.5-6c-1.3-2.2-4-3.3-6.5-2.7l-6.7 1.7c-7.7 2-15.9 0.6-22.5-3.8-6.6-4.4-11-11.5-12.1-19.3l-1-6.9c-0.4-2.6-2.4-4.6-5-5l-6.9-1c-7.9-1.1-14.9-5.5-19.3-12.1s-5.8-14.8-3.8-22.5l1.7-6.7c0.7-2.5-0.5-5.2-2.7-6.5l-6-3.5c-6.9-4-11.7-10.8-13.2-18.6-1.6-7.8 0.3-15.9 5.1-22.3l4.2-5.5c1.6-2.1 1.6-5 0-7l-4.2-5.5c-1.1-1.4-2-2.9-2.7-4.4-2.7-5.5-0.5-12.1 5-14.8 5.5-2.7 12.1-0.5 14.8 5l0.6 0.9 4.2 5.5c7.5 9.9 7.5 23.7 0 33.6l-4.2 5.5c-1.4 1.8-1.3 3.7-1.1 4.7 0.2 1 0.8 2.7 2.8 3.9l6 3.5c10.7 6.3 16 19.1 12.9 31.1l-1.7 6.7c-0.6 2.2 0.3 3.9 0.8 4.7 0.5 0.8 1.8 2.2 4 2.5l6.9 1c12.3 1.7 22.1 11.5 23.8 23.8l1 6.9c0.3 2.3 1.7 3.5 2.5 4s2.5 1.4 4.7 0.8l6.7-1.7c12-3.1 24.8 2.2 31.1 12.9l3.5 6c1.2 2 2.9 2.6 3.9 2.8 1 0.2 2.8 0.3 4.6-1.1l5.5-4.2c9.9-7.5 23.7-7.5 33.6 0l5.5 4.2c1.8 1.4 3.7 1.3 4.6 1.1s2.7-0.8 3.9-2.8l3.5-6c6.3-10.7 19.1-16 31.1-12.9l6.7 1.7c2.2 0.6 3.9-0.3 4.7-0.8 0.8-0.5 2.2-1.8 2.5-4l1-6.9c1.7-12.3 11.5-22.1 23.8-23.8l6.9-1c2.3-0.3 3.5-1.7 4-2.5s1.4-2.5 0.8-4.7l-1.7-6.7c-3.1-12 2.2-24.8 12.9-31.1l6-3.5c2-1.2 2.6-2.9 2.8-3.9 0.2-1 0.3-2.8-1.1-4.6l-4.2-5.5c-7.5-9.9-7.5-23.7 0-33.6l4.2-5.5c1.4-1.8 1.3-3.7 1.1-4.6s-0.8-2.7-2.8-3.9l-6-3.5c-10.7-6.3-16-19.1-12.9-31.1l1.7-6.7c0.6-2.2-0.3-3.9-0.8-4.7-0.5-0.8-1.8-2.2-4-2.5l-6.9-1c-12.3-1.7-22.1-11.5-23.8-23.8l-1-6.9c-0.3-2.3-1.7-3.5-2.5-4s-2.5-1.4-4.7-0.8l-6.7 1.7c-12 3.1-24.8-2.2-31.1-12.9l-3.5-6c-1.2-2-2.9-2.6-3.9-2.8-1-0.2-2.8-0.3-4.6 1.1l-5.5 4.2c-9.9 7.5-23.7 7.5-33.6 0l-5.5-4.2c-1.8-1.4-3.7-1.3-4.6-1.1-1 0.2-2.7 0.8-3.9 2.8l-3.5 6c-6.3 10.7-19.1 16-31.1 12.9l-6.7-1.7c-2.2-0.6-3.9 0.3-4.7 0.8-0.8 0.5-2.2 1.8-2.5 4l-1 6.9c-1.7 12.3-11.5 22.1-23.8 23.8l-6.9 1c-6 0.8-11.6-3.4-12.4-9.4-0.8-6 3.4-11.6 9.4-12.4l6.9-1c2.6-0.4 4.6-2.4 5-5l1-6.9c1.1-7.9 5.5-14.9 12.1-19.3s14.8-5.8 22.5-3.8l6.7 1.7c2.5 0.7 5.2-0.5 6.5-2.7l3.5-6c4-6.9 10.8-11.7 18.6-13.2 7.8-1.5 15.9 0.3 22.3 5.1l5.5 4.2c2.1 1.6 5 1.6 7 0l5.5-4.2c6.3-4.8 14.5-6.7 22.3-5.1 7.8 1.6 14.6 6.4 18.6 13.2l3.5 6c1.3 2.2 4 3.3 6.5 2.7l6.7-1.7c7.7-2 15.9-0.6 22.5 3.8 6.6 4.4 11 11.5 12.1 19.3l1 6.9c0.4 2.6 2.4 4.6 5 5l6.9 1c7.9 1.1 14.9 5.5 19.3 12.1s5.8 14.8 3.8 22.5l-1.7 6.7c-0.7 2.5 0.5 5.2 2.7 6.5l6 3.5c6.9 4 11.7 10.8 13.2 18.6 1.6 7.8-0.3 15.9-5.1 22.3l-4.2 5.5c-1.6 2.1-1.6 5 0 7l4.2 5.5c4.8 6.3 6.7 14.5 5.1 22.3-1.6 7.8-6.4 14.6-13.2 18.6l-6 3.5c-2.2 1.3-3.3 4-2.7 6.5l1.7 6.7c2 7.7 0.6 15.9-3.8 22.5-4.4 6.6-11.5 11-19.3 12.1l-6.9 1c-2.6 0.4-4.6 2.4-5 5l-1 6.9c-1.1 7.9-5.5 14.9-12.1 19.3s-14.8 5.8-22.5 3.8l-6.7-1.7c-2.5-0.7-5.2 0.5-6.5 2.7l-3.5 6c-4 6.9-10.8 11.7-18.6 13.2-7.8 1.5-15.9-0.3-22.3-5.1l-5.5-4.2c-2.1-1.6-5-1.6-7 0l-5.5 4.2c-5.1 3.4-11.1 5.4-17.1 5.4z" fill="#231815" p-id="7914"></path><path d="M428.6 449.8h-0.9c-6.1-0.5-10.6-5.8-10.1-11.9 3.2-39.5 48.5-53.9 50.4-54.5 5.8-1.8 12 1.5 13.8 7.3 1.8 5.8-1.5 12-7.3 13.8-0.6 0.2-32.9 10.7-34.9 35.2-0.5 5.8-5.3 10.1-11 10.1z" fill="#FFFFFF" p-id="7915"></path></svg>